# xmcd
#
# Track frame offsets: 
#        150
#        17855
#        37075
#        57637
#        75290
#        93567
#        113657
#        131385
#        148070
#        165072
#        182702
#        201662
#        232237
#        255237
#
# Disc length: 3662 seconds
#
# Revision: 2
# Processed by: cddbd v1.5.1PL0 Copyright (c) Steve Scherf et al.
# Submitted via: ExactAudioCopy v0.95a4
#
DISCID=bd0e4c0e
DTITLE=Davina - Best Of Both Worlds
DYEAR=1998
DGENRE=R&B
TTITLE0=Come Over To My Place
TTITLE1=Comin' For You
TTITLE2=So Good
TTITLE3=When It Rains
TTITLE4=Love's Comin' Down
TTITLE5=I Can't Help It
TTITLE6=Give Me Love
TTITLE7=Mercy
TTITLE8=Getz No Where
TTITLE9=Only One Reason
TTITLE10=The Way I Feel About You
TTITLE11=After The Rain
TTITLE12=My Cryin' Blues
TTITLE13=Is It The Way
EXTD=
EXTT0=
EXTT1=
EXTT2=
EXTT3=
EXTT4=
EXTT5=
EXTT6=
EXTT7=
EXTT8=
EXTT9=
EXTT10=
EXTT11=
EXTT12=
EXTT13=
PLAYORDER=
